<svg version="1.2" xmlns="http://www.w3.org/2000/svg" viewBox="0 0 69 145" width="69" height="145">
	<title>&lt;Group&gt;</title>
	<style>
		.s0 { fill: #4fc0f6;stroke: #ffffff;paint-order:stroke fill markers;stroke-linejoin: round;stroke-width: 2 } 
	</style>
	<g id="&lt;Group&gt;">
		<g id="&lt;Group&gt;">
			<path id="&lt;Path&gt;" class="s0" d="m22.3 123.3c1.1-0.7 0.8 0.1 1.6-1 0.1-0.2 0.1-0.4 0.1-0.6 0.2-1.1 0.5-2.1 0.5-3.2 0.1-1 0-2 0-3-0.1-11.5 0.7-23 2.5-34.2 1.9-11.3 4.8-22.3 9.3-32.7 4-9.2 9.1-17.9 15.5-26 4.1-5.3 8.6-10.4 13.9-15.2 0.2 0 0.2-0.2 0.1-0.3-0.1-0.1-0.2-0.1-0.3-0.1-7.7 5.1-14.5 10.6-20.1 16.9-9.1 10.2-15.5 21.9-19.9 34.3-2.7 7.5-4.6 15.3-5.7 23.2-1.8 11.7-1.9 23.7-1.1 35.6 0.1 0.5 0.1 1.1 0.2 1.6 0.2 1.2 0.5 2.4 1 3.6 0 0.1 0.1 0.3 0.2 0.4 0.9 0.9 0.5 0.2 1.7 0.8 0 0.1 0.1 0.2 0.2 0.2 0.2 0 0.3-0.1 0.3-0.3z"/>
		</g>
		<g id="&lt;Group&gt;">
			<path id="&lt;Compound Path&gt;" fill-rule="evenodd" class="s0" d="m21.9 125.7c4.1-6.9 9.3-16.9 13.6-24.5 2.8-4.9 5.2-8.7 6.2-10.3 0.1-0.4 0.5-0.5 0.8-0.3 0.3 0.1 0.5 0.5 0.3 0.8-0.7 1.8-2.2 6-4.4 11.3-2.2 5-5 10.9-7.6 16.4-3.3 7.1-6.5 13.4-8.4 16.3-0.2 0.4-0.6 0.7-0.7 1-0.4 1.5-0.9 1.6-1.2 2.2-0.7 1.1-1.8 0.7-2.6 0.9-1.6 0.3-2.9-0.9-4-2.7-0.7-1.1-0.7-4.2-1.2-5.6-1.9-5.3-3.8-10.7-5.3-16.2-1.3-5-2.3-10-3.2-15-0.5-3.4-1-6.8-1.3-10.1 0-0.3-0.1-0.6 0-0.9 0.7-1.5 1-1 2.1-2.3 0-0.1 0.1-0.3 0.3-0.3 0.1 0 0.3 0.1 0.3 0.2 1.5 0.8 1.6 0.2 2.7 1.5 0.2 0.2 0.3 0.4 0.4 0.7 1.6 6.6 3.6 13.3 5.6 19.9 2 6.5 3.9 13 6.2 19.3q0.7-1.1 1.4-2.3zm-1.2 6.5c0 0.7 0.2 1.2 0.8 1.1 0.6-0.2-0.2-0.7-0.8-1.1zm-2.3-0.7q-0.4 0-0.8-0.1c-0.3 0-0.3 0.5-0.7 0.5-0.1 0-0.2 0.3-0.2 0.5 0 0.1 0.3 0.4 0.5 0.3q0.6-0.3 1.2-1.2z"/>
		</g>
	</g>
</svg>